<svg xmlns="http://www.w3.org/2000/svg" width="1200" height="720" viewBox="0 0 1200 720" role="img" aria-labelledby="title desc">
  <title id="title">Meia Maratona de Vila Velha 3ª edição</title>
  <desc id="desc">Logo provisória laranja e preta da terceira edição da Meia Maratona de Vila Velha.</desc>
  <rect width="1200" height="720" fill="#ff3d00"/>
  <path d="M0 520c210-92 334-96 506-42 154 49 282 29 390-91 77-85 183-133 304-133v466H0Z" fill="#101010" opacity=".2"/>
  <path d="M0 640c190-72 392-79 582-18 214 69 399 50 618-86v184H0Z" fill="#101010"/>
  <circle cx="912" cy="142" r="62" fill="#101010"/>
  <path d="M889 214c26 2 50 9 73 23l32 20-36 67 76 84-54 48-103-102-45 95 93 106-60 51-122-143 87-180-72-26-66 103-68-36 91-143 98 30Z" fill="#101010"/>
  <path d="M120 356c116-178 308-273 536-250 78 8 148 27 209 56-160 2-302 53-424 154-86 71-191 111-321 119Z" fill="#fff"/>
  <text x="104" y="500" font-family="Outfit, Arial, sans-serif" font-size="70" font-weight="900" fill="#fff">MEIA MARATONA</text>
  <rect x="104" y="524" width="585" height="8" fill="#fff"/>
  <text x="104" y="604" font-family="Outfit, Arial, sans-serif" font-size="104" font-weight="900" fill="#fff">VILA VELHA</text>
  <text x="725" y="520" font-family="Outfit, Arial, sans-serif" font-size="42" font-weight="800" fill="#101010">3ª EDIÇÃO</text>
  <text x="727" y="574" font-family="Outfit, Arial, sans-serif" font-size="32" font-weight="800" fill="#101010">DATA A SER LIBERADA</text>
</svg>
