<?xml version="1.0" encoding="UTF-8"?>
<svg xmlns="http://www.w3.org/2000/svg" width="430" height="112" viewBox="0 0 430 112" role="img" aria-labelledby="title desc">
  <title id="title">Zenite Tickets</title>
  <desc id="desc">Logo da plataforma Zenite Tickets</desc>
  <defs>
    <linearGradient id="zeniteMark" x1="8" y1="8" x2="92" y2="92" gradientUnits="userSpaceOnUse">
      <stop offset="0" stop-color="#ffb000"/>
      <stop offset="0.52" stop-color="#ff6b00"/>
      <stop offset="1" stop-color="#ff3b10"/>
    </linearGradient>
  </defs>
  <g transform="translate(16 14)">
    <path d="M14 0h70a14 14 0 0 1 14 14v9a12 12 0 0 0 0 24v9a14 14 0 0 1-14 14H14A14 14 0 0 1 0 56v-9a12 12 0 0 0 0-24v-9A14 14 0 0 1 14 0Z" fill="url(#zeniteMark)"/>
    <path d="M35 58 49 17l14 41-14-9Z" fill="#fff"/>
    <path d="M29 31h40" stroke="#101010" stroke-width="6" stroke-linecap="round" opacity=".18"/>
    <path d="M22 45h56" stroke="#fff" stroke-width="5" stroke-linecap="round" opacity=".8"/>
  </g>
  <text x="132" y="52" font-family="Inter, Outfit, system-ui, sans-serif" font-size="38" font-weight="900" letter-spacing="0" fill="#ffffff">Zenite</text>
  <text x="134" y="80" font-family="Inter, Outfit, system-ui, sans-serif" font-size="20" font-weight="800" letter-spacing=".16em" fill="#ff6b00">TICKETS</text>
</svg>
